<svg width="300" height="300" viewBox="0 0 300 300" fill="none" xmlns="http://www.w3.org/2000/svg">
<rect width="300" height="300" fill="#FFFEFE"/>
<path d="M148.957 180.611C153.369 156.525 177.424 140.751 202.685 145.378C227.946 150.006 244.847 173.282 240.435 197.368C236.023 221.454 217.761 236.627 192.5 232C169.385 227.766 153.276 201.435 148.957 180.611Z" fill="#EDEDED" fill-opacity="0.52"/>
<path d="M148.957 180.611C153.369 156.525 177.424 140.751 202.685 145.378C227.946 150.006 244.847 173.282 240.435 197.368C236.023 221.454 217.761 236.627 192.5 232C169.385 227.766 153.276 201.435 148.957 180.611Z" fill="#EDEDED" fill-opacity="0.52"/>
<path d="M152 109C152 133.853 131.181 154 105.5 154C79.8188 154 59 133.853 59 109C59 84.1472 75.3188 65.5 101 65.5C124.5 65.5 144 89 152 109Z" fill="#EDEDED" fill-opacity="0.52"/>
<path d="M152 109C152 133.853 131.181 154 105.5 154C79.8188 154 59 133.853 59 109C59 84.1472 75.3188 65.5 101 65.5C124.5 65.5 144 89 152 109Z" fill="#EDEDED" fill-opacity="0.52"/>
<path d="M59 120.487C59 118.512 59.3635 116.555 60.0722 114.712L60.7427 112.969C61.2401 111.676 62.0449 110.523 63.0875 109.611V109.611C64.6428 108.25 66.6391 107.5 68.7056 107.5H70.7202C72.8771 107.5 75.0044 108.002 76.9335 108.967L79.0244 110.012C81.6521 111.326 84.0137 113.115 85.99 115.289L98 128.5L113.427 147.557C114.445 148.814 115 150.383 115 152V152V203.035C115 205.325 114.578 207.596 113.756 209.734V209.734C112.926 211.893 111.702 213.878 110.146 215.589L109.634 216.152C108.218 217.71 106.593 219.063 104.804 220.173L93 227.5L60.7459 245.524C59.9637 245.961 59 245.396 59 244.5V244.5V120.487Z" fill="#0D0C0C"/>
<path d="M242.007 180.533C242.002 181.175 241.921 181.815 241.764 182.438V182.438C241.425 183.79 240.741 185.03 239.78 186.038L237.25 188.69C236.427 189.552 235.421 190.217 234.305 190.636V190.636C232.804 191.199 231.167 191.292 229.612 190.903L228.055 190.514C226.692 190.174 225.392 189.615 224.207 188.861L220.514 186.51C216.862 184.185 213.612 181.284 210.89 177.918L187.5 149V149C186.721 148.029 186.297 146.822 186.297 145.577L186.297 107.524C186.297 105.194 186.741 102.885 187.606 100.721V100.721C188.449 98.6119 189.677 96.678 191.226 95.0177L191.788 94.4156C193.225 92.8766 194.868 91.5446 196.671 90.4579L208.57 83.2866L241.058 65.6863C241.845 65.2595 242.802 65.8375 242.79 66.7334V66.7334L242.007 180.533Z" fill="#0D0C0C"/>
<path d="M85.5 100V100C83.8524 96.3754 83 92.44 83 88.4585L83 84.106C83 81.4058 83.6287 78.7426 84.8363 76.3274V76.3274C85.933 74.134 87.4812 72.1972 89.3793 70.6442L90.2439 69.9368C91.4097 68.983 92.6943 68.1844 94.0656 67.5611V67.5611C96.3289 66.5323 98.7863 66 101.273 66L106 66L106.552 66.0613C112.133 66.6814 117.545 68.3575 122.5 71V71L125.262 72.89C129.725 75.9431 133.662 79.6998 136.921 84.0137L149 100L172 133L201.5 173L210.934 186.788C213.302 190.249 215.225 193.994 216.658 197.935L217.532 200.339C218.177 202.11 218.686 203.928 219.055 205.777L220.024 210.621C220.664 213.818 220.458 217.127 219.427 220.22V220.22C218.174 223.977 215.764 227.24 212.542 229.541L212.212 229.777C208.822 232.199 204.761 233.5 200.595 233.5L198.537 233.5C196.189 233.5 193.853 233.187 191.588 232.569L190.29 232.216C186.13 231.081 182.204 229.217 178.694 226.71L176.665 225.261C172.251 222.108 168.38 218.258 165.202 213.861L127 161L93.0168 114.158C91.0109 111.393 89.2936 108.43 87.8918 105.315L85.5 100Z" fill="#0D0C0C"/>
</svg>
